<svg xmlns:gliffy="http://www.gliffy.com" xmlns:x="http://ns.adobe.com/Extensibility/1.0/" xmlns:i="http://ns.adobe.com/AdobeIllustrator/10.0/" xmlns:graph="http://ns.adobe.com/Graphs/1.0/" xmlns:a="http://ns.adobe.com/AdobeSVGViewerExtensions/3.0/" xmlns="http://www.w3.org/2000/svg" xmlns:xlink="http://www.w3.org/1999/xlink" width="759" height="456"><rect stroke="#000000" stroke-width="0" fill="#ffffff" x="0" y="0" width="758" height="455"/><defs><linearGradient gradientUnits="userSpaceOnUse" id="SVGIDfirewall_1_" x1="4.5986" x2="26.4741" xlink:actuate="onLoad" xlink:show="other" xlink:type="simple" xmlns:xlink="http://www.w3.org/1999/xlink" y1="60.2539" y2="60.2539">		<stop offset="0" style="stop-color:#FF1600"/>		<stop offset="1" style="stop-color:#000000"/>		<a:midPointStop offset="0" style="stop-color:#FF1600"/>		<a:midPointStop offset="0.5" style="stop-color:#FF1600"/>		<a:midPointStop offset="1" style="stop-color:#000000"/>	</linearGradient><linearGradient gradientUnits="userSpaceOnUse" id="SVGIDfirewall_2_" x1="18.0898" x2="39.5474" xlink:actuate="onLoad" xlink:show="other" xlink:type="simple" xmlns:xlink="http://www.w3.org/1999/xlink" y1="55.9199" y2="55.9199">		<stop offset="0" style="stop-color:#FF1600"/>		<stop offset="1" style="stop-color:#000000"/>		<a:midPointStop offset="0" style="stop-color:#FF1600"/>		<a:midPointStop offset="0.5" style="stop-color:#FF1600"/>		<a:midPointStop offset="1" style="stop-color:#000000"/>	</linearGradient><linearGradient gradientUnits="userSpaceOnUse" id="SVGIDfirewall_3_" x1="24.5962" x2="50.1509" xlink:actuate="onLoad" xlink:show="other" xlink:type="simple" xmlns:xlink="http://www.w3.org/1999/xlink" y1="63.5957" y2="63.5957">		<stop offset="0" style="stop-color:#FF1600"/>		<stop offset="1" style="stop-color:#000000"/>		<a:midPointStop offset="0" style="stop-color:#FF1600"/>		<a:midPointStop offset="0.5" style="stop-color:#FF1600"/>		<a:midPointStop offset="1" style="stop-color:#000000"/>	</linearGradient><linearGradient gradientTransform="matrix(0.4056 0.914 -0.914 0.4056 86.0182 8.5152)" gradientUnits="userSpaceOnUse" id="SVGIDfirewall_4_" x1="40.9082" x2="61.3633" xlink:actuate="onLoad" xlink:show="other" xlink:type="simple" xmlns:xlink="http://www.w3.org/1999/xlink" y1="68.5557" y2="68.5557">		<stop offset="0" style="stop-color:#FF1600"/>		<stop offset="1" style="stop-color:#000000"/>		<a:midPointStop offset="0" style="stop-color:#FF1600"/>		<a:midPointStop offset="0.5" style="stop-color:#FF1600"/>		<a:midPointStop offset="1" style="stop-color:#000000"/>	</linearGradient><symbol id="com.gliffy.newnetwork.business.Firewall" viewBox="0 0 80 100" preserveAspectRatio="none"><g id="Layer_0">	<rect fill="none" height="100" width="80"/>	<path d="M2.049,24.035c1.923,1.648,0,2.752,0,2.752s0,13.95,0,16.257c1.777,1.244,0,2.645,0,2.645v16.258L0,63.443   L63.646,100L80,90.91l-1.378-1.886V72.767c0,0-2.268-0.64,0-2.89c-0.028-0.948,0-16.257,0-16.257s-1.464-0.812,0-2.109   c0-2.034,0-15.753,0-15.753l-14.423-8.282c0,0-3.159,1.003-2.829-1.625c-1.251-0.718-16.427-9.434-28.817-16.548   c-1.081,0.492-3.017,1.074-2.646-1.52C22.312,3.432,16.354,0,16.354,0L2.049,7.778V24.035z"/></g><g id="Layer_1">	<rect fill="none" height="100" width="80"/>	<polygon fill="#CCCCCC" points="2.049,26.787 2.049,43.044 31.5,59.79 31.5,43.531  "/>	<polygon fill="#CCCCCC" points="33.951,44.797 33.951,61.054 64.276,78.204 64.276,61.946  "/>	<polygon fill="#CCCCCC" points="18.05,55.423 18.05,71.104 47.426,87.55 47.426,71.681  "/>	<polygon fill="#CCCCCC" points="18.05,17.318 18.05,33.575 46.739,49.834 46.739,33.575  "/>	<polygon fill="#CCCCCC" points="2.049,45.688 2.049,61.946 16.395,70.273 16.395,54.016  "/>	<polygon fill="#CCCCCC" points="2.049,7.778 2.049,24.035 15.908,32.086 15.908,16.04  "/>	<polygon fill="#CCCCCC" points="49.932,72.767 49.932,89.024 64.276,97.352 64.276,81.093  "/>	<polygon fill="#888888" points="78.622,72.767 78.622,89.024 64.276,97.352 64.276,81.093  "/>	<polygon fill="#888888" points="78.622,35.758 78.622,51.511 64.276,59.839 64.276,43.58  "/>	<polygon fill="#888888" points="78.622,53.62 78.622,69.877 64.276,78.204 64.276,61.946  "/>	<polygon fill="#CCCCCC" points="49.932,35.254 49.932,51.511 64.276,59.839 64.276,43.58  "/>	<polygon fill="#B3B3B3" points="2.049,7.778 16.354,0 29.898,7.778 15.908,16.04  "/>	<polygon fill="#B3B3B3" points="18.05,17.318 32.546,9.299 61.206,25.758 46.739,33.575  "/>	<polygon fill="#B3B3B3" points="49.932,35.254 64.276,27.523 78.622,35.758 64.21,43.779  "/>		<path d="M26.425,66.729c-0.648-11.04-10.101-20.648-7.502-29.426C2.449,45.824,3.283,58.996,6.396,67.931   C19.311,95.758,27.173,79.483,26.425,66.729z" fill="url(#SVGIDfirewall_1_)"/>		<path d="M39.284,73.648C37.107,62.289,45.22,49.67,28.359,21.754c2.856,28.772-14.885,43.455-9.103,58.592   C27.956,100.005,41.612,85.791,39.284,73.648z" fill="url(#SVGIDfirewall_2_)"/>		<path d="M49.897,75.963c1.95-10.891-8.075-33.294-5.477-42.071C35.901,61.131,17.86,70.437,27.22,89.99   C42.884,98.761,47.613,88.717,49.897,75.963z" fill="url(#SVGIDfirewall_3_)"/>				<path d="M46.094,93.299c9.275-3.214,12.471-13.479,14.785-19.343C43.471,86.69,24.847,73.05,24.596,83.185   C23.546,93.385,38.889,95.795,46.094,93.299z" fill="url(#SVGIDfirewall_4_)"/></g></symbol></defs><g transform='translate(391.0,200.0) rotate(0.0 32.0 40.0)'><use xlink:href='#com.gliffy.newnetwork.business.Firewall' width='64.0' height='80.0'  fill="#003366"/><g  transform='translate(0.0,97.0)'><text x='32.0' style='text-anchor: middle' y='-2.0'><tspan xml:space='preserve' font-size='12' font-family='Arial' fill='#000000' >Entry 1</tspan></text></g></g><g transform='translate(541.0,203.5) rotate(0.0 32.0 40.0)'><use xlink:href='#com.gliffy.newnetwork.business.Firewall' width='64.0' height='80.0'  fill="#003366"/><g  transform='translate(0.0,97.0)'><text x='32.0' style='text-anchor: middle' y='-2.0'><tspan xml:space='preserve' font-size='12' font-family='Arial' fill='#000000' >Entry2</tspan></text></g></g><defs>    <path d="M0.407,25.017l0.716-0.413c0.19-0.107,0.452-0.094,0.741,0.07L1.15,25.09        C0.86,24.922,0.597,24.908,0.407,25.017z" enable-background="new    " id="SVGIDRack_server_1U_1_"/>    <clipPath id="SVGIDRack_server_1U_2_">        <use overflow="visible" xlink:actuate="onLoad" xlink:href="#SVGIDRack_server_1U_1_" xlink:show="embed" xlink:type="simple" xmlns:xlink="http://www.w3.org/1999/xlink"/>    </clipPath>    <path d="M2.595,27.113l-0.716,0.416c0.187-0.108,0.305-0.337,0.305-0.662        c0.002-0.652-0.464-1.447-1.033-1.777l0.714-0.416c0.572,0.329,1.036,1.125,1.034,1.779        C2.897,26.779,2.782,27.007,2.595,27.113z" enable-background="new    " id="SVGIDRack_server_1U_3_"/>    <clipPath id="SVGIDRack_server_1U_4_">        <use overflow="visible" xlink:actuate="onLoad" xlink:href="#SVGIDRack_server_1U_3_" xlink:show="embed" xlink:type="simple" xmlns:xlink="http://www.w3.org/1999/xlink"/>    </clipPath>    <path d="M0.3,31.133l0.716-0.414c0.19-0.111,0.452-0.094,0.741,0.07l-0.717,0.416        C0.75,31.037,0.49,31.022,0.3,31.133z" enable-background="new    " id="SVGIDRack_server_1U_5_"/>    <clipPath id="SVGIDRack_server_1U_6_">        <use overflow="visible" xlink:actuate="onLoad" xlink:href="#SVGIDRack_server_1U_5_" xlink:show="embed" xlink:type="simple" xmlns:xlink="http://www.w3.org/1999/xlink"/>    </clipPath>    <path d="M2.488,33.229l-0.716,0.416c0.187-0.11,0.302-0.338,0.302-0.662        c0.004-0.652-0.462-1.45-1.033-1.777l0.717-0.416c0.572,0.33,1.036,1.125,1.034,1.779C2.79,32.892,2.675,33.122,2.488,33.229z        " enable-background="new    " id="SVGIDRack_server_1U_7_"/>    <clipPath id="SVGIDRack_server_1U_8_">        <use overflow="visible" xlink:actuate="onLoad" xlink:href="#SVGIDRack_server_1U_7_" xlink:show="embed" xlink:type="simple" xmlns:xlink="http://www.w3.org/1999/xlink"/>    </clipPath>    <path d="M58.236,57.938l0.719-0.411c0.189-0.109,0.449-0.095,0.738,0.072         l-0.714,0.415C58.689,57.846,58.426,57.831,58.236,57.938z" enable-background="new    " id="SVGIDRack_server_1U_11_"/>    <clipPath id="SVGIDRack_server_1U_12_">        <use overflow="visible" xlink:actuate="onLoad" xlink:href="#SVGIDRack_server_1U_11_" xlink:show="embed" xlink:type="simple" xmlns:xlink="http://www.w3.org/1999/xlink"/>    </clipPath>    <path d="M60.426,60.04l-0.718,0.411c0.187-0.105,0.307-0.338,0.307-0.661         c0.002-0.656-0.465-1.449-1.035-1.775l0.714-0.415c0.571,0.327,1.038,1.123,1.036,1.777         C60.729,59.7,60.613,59.933,60.426,60.04z" enable-background="new    " id="SVGIDRack_server_1U_13_"/>    <clipPath id="SVGIDRack_server_1U_14_">        <use overflow="visible" xlink:actuate="onLoad" xlink:href="#SVGIDRack_server_1U_13_" xlink:show="embed" xlink:type="simple" xmlns:xlink="http://www.w3.org/1999/xlink"/>    </clipPath>    <path d="M58.236,64.31l0.719-0.419c0.189-0.106,0.449-0.094,0.738,0.073         l-0.714,0.413C58.689,64.215,58.426,64.195,58.236,64.31z" enable-background="new    " id="SVGIDRack_server_1U_15_"/>    <clipPath id="SVGIDRack_server_1U_16_">        <use overflow="visible" xlink:actuate="onLoad" xlink:href="#SVGIDRack_server_1U_15_" xlink:show="embed" xlink:type="simple" xmlns:xlink="http://www.w3.org/1999/xlink"/>    </clipPath>    <path d="M60.428,66.406l-0.719,0.413c0.186-0.105,0.306-0.333,0.306-0.66         c0.002-0.654-0.465-1.45-1.035-1.782l0.714-0.413c0.571,0.327,1.038,1.128,1.036,1.777         C60.729,66.071,60.614,66.299,60.428,66.406z" enable-background="new    " id="SVGIDRack_server_1U_17_"/>    <clipPath id="SVGIDRack_server_1U_18_">        <use overflow="visible" xlink:actuate="onLoad" xlink:href="#SVGIDRack_server_1U_17_" xlink:show="embed" xlink:type="simple" xmlns:xlink="http://www.w3.org/1999/xlink"/>    </clipPath>    <polygon enable-background="new    " id="SVGIDRack_server_1U_19_" points="4.972,33.474 4.985,29.013 18.725,36.945 18.712,41.406     "/>    <clipPath id="SVGIDRack_server_1U_20_">        <use overflow="visible" xlink:actuate="onLoad" xlink:href="#SVGIDRack_server_1U_19_" xlink:show="embed" xlink:type="simple" xmlns:xlink="http://www.w3.org/1999/xlink"/>    </clipPath>    <polygon enable-background="new    " id="SVGIDRack_server_1U_21_" points="20.458,42.315 20.471,37.854 34.211,45.787 34.198,50.248     "/>    <clipPath id="SVGIDRack_server_1U_22_">        <use overflow="visible" xlink:actuate="onLoad" xlink:href="#SVGIDRack_server_1U_21_" xlink:show="embed" xlink:type="simple" xmlns:xlink="http://www.w3.org/1999/xlink"/>    </clipPath>    <polygon enable-background="new    " id="SVGIDRack_server_1U_23_" points="36.002,51.347 36.015,46.886 49.755,54.818 49.742,59.279     "/>    <clipPath id="SVGIDRack_server_1U_24_">        <use overflow="visible" xlink:actuate="onLoad" xlink:href="#SVGIDRack_server_1U_23_" xlink:show="embed" xlink:type="simple" xmlns:xlink="http://www.w3.org/1999/xlink"/>    </clipPath>    <linearGradient gradientUnits="userSpaceOnUse" id="SVGIDRack_server_1U_9_" x1="4.6094" x2="100" xlink:actuate="onLoad" xlink:show="other" xlink:type="simple" xmlns:xlink="http://www.w3.org/1999/xlink" y1="27.5967" y2="27.5967">		<stop offset="0" style="stop-color:#C5C5C5"/>		<stop offset="1" style="stop-color:#222222"/>		<a:midPointStop offset="0" style="stop-color:#C5C5C5"/>		<a:midPointStop offset="0.5" style="stop-color:#C5C5C5"/>		<a:midPointStop offset="1" style="stop-color:#222222"/>	</linearGradient><linearGradient gradientUnits="userSpaceOnUse" id="SVGIDRack_server_1U_10_" x1="59.8936" x2="60.3415" xlink:actuate="onLoad" xlink:show="other" xlink:type="simple" xmlns:xlink="http://www.w3.org/1999/xlink" y1="67.9395" y2="55.1113">				<stop offset="0" style="stop-color:#000000"/>				<stop offset="0.1297" style="stop-color:#050505"/>				<stop offset="0.2727" style="stop-color:#121212"/>				<stop offset="0.4221" style="stop-color:#282828"/>				<stop offset="0.576" style="stop-color:#474747"/>				<stop offset="0.7333" style="stop-color:#6F6F6F"/>				<stop offset="0.8911" style="stop-color:#9E9E9E"/>				<stop offset="1" style="stop-color:#C4C4C4"/>				<a:midPointStop offset="0" style="stop-color:#000000"/>				<a:midPointStop offset="0.6871" style="stop-color:#000000"/>				<a:midPointStop offset="1" style="stop-color:#C4C4C4"/>			</linearGradient><symbol id="com.gliffy.newnetwork.business.Rack_Server_1U" viewBox="0 0 100 68" preserveAspectRatio="none"><g id="Layer_0">	<rect fill="none" height="68" width="100"/>	<path d="M50.822,53.796c0-0.637,0.454-0.896,1.01-0.577l3.56,2.042c0.553,0.316,1.004,1.097,1.002,1.732   l-0.006,6.744c-0.001,0.637-0.453,0.896-1.006,0.58l-3.548-2.024c-0.558-0.316-1.012-1.1-1.012-1.735V53.796z"/></g><g id="Layer_1">	<rect fill="none" height="68" width="100"/>	<g>		<path d="M4.917,33.282L4.379,33.58c-2.338-1.348-2.39-1.466-2.767-1.663c-0.748-0.392-1.57-1.273-1.57-2.219    c0-0.782-0.039-3.98-0.037-5.541c0-0.337,0.389-0.634,0.393-0.776c1.103-0.83,1.402-1.004,2.5-0.369    C4,23.648,4.972,24.249,4.972,24.249L4.917,33.282z" fill="#DCDCDC"/>		<path d="M3.422,35.209c0,0-2.339-1.193-2.481-1.299c-0.562-0.418-0.928-0.847-0.928-1.684c0-0.839,0-7.892,0-7.892    S0,22.818,1.167,23.49c0.845,0.488,2.274,1.312,2.274,1.312L3.422,35.209z" fill="#ACACAC"/>	</g>	<path d="M3.367,24.76L3.349,35.166l54.118,30.923l0.015-10.295L3.367,24.76z M56.284,63.283   c-0.001,0.579-0.413,0.815-0.915,0.527l-3.226-1.84c-0.504-0.288-0.917-1-0.917-1.578v-6.146c0-0.579,0.413-0.814,0.915-0.525   l3.236,1.856c0.502,0.288,0.913,0.997,0.912,1.575L56.284,63.283z" fill="#373737"/>	<g>		<g a:adobe-knockout="true">			<g a:adobe-knockout="false" enable-background="new    ">				<g>					<polygon fill="#616161" points="0.398,25.84 1.115,25.428 1.482,26.383 0.768,26.799      "/>				</g>				<g>					<polygon fill="#585858" points="0.768,26.799 1.482,26.383 2.235,26.814 1.52,27.23      "/>				</g>				<g>					<polygon fill="#616161" points="0.771,25.311 1.486,24.898 1.115,25.428 0.398,25.84      "/>				</g>				<g enable-background="new    ">					<g clip-path="url(#SVGIDRack_server_1U_2_)" enable-background="new    ">						<path d="M0.407,25.017l0.716-0.413c0.028-0.018,0.056-0.029,0.085-0.039l-0.716,0.415        C0.461,24.99,0.435,25.003,0.407,25.017" fill="#353535"/>						<path d="M0.492,24.979l0.716-0.415c0.022-0.008,0.047-0.015,0.072-0.02l-0.715,0.414        C0.539,24.964,0.516,24.97,0.492,24.979" fill="#373737"/>						<path d="M0.565,24.959l0.715-0.414c0.02-0.002,0.04-0.008,0.059-0.01l-0.714,0.414        C0.604,24.951,0.584,24.955,0.565,24.959" fill="#393939"/>						<path d="M0.625,24.949l0.714-0.414c0.02-0.002,0.036-0.003,0.057-0.003l-0.717,0.415        C0.662,24.947,0.642,24.949,0.625,24.949" fill="#3B3B3B"/>						<path d="M0.679,24.947l0.717-0.415c0.015,0,0.03,0.001,0.048,0.002l-0.717,0.415        C0.712,24.947,0.694,24.947,0.679,24.947" fill="#3D3D3D"/>						<path d="M0.727,24.949l0.717-0.415c0.014,0.001,0.029,0.002,0.047,0.007l-0.717,0.413        C0.759,24.951,0.742,24.949,0.727,24.949" fill="#3F3F3F"/>						<path d="M0.774,24.954l0.717-0.413c0.014,0.002,0.028,0.004,0.043,0.008L0.82,24.962        C0.803,24.959,0.789,24.956,0.774,24.954" fill="#414141"/>						<path d="M0.82,24.962l0.715-0.413c0.016,0.001,0.029,0.006,0.043,0.008L0.863,24.97        C0.847,24.968,0.833,24.964,0.82,24.962" fill="#434343"/>						<path d="M0.863,24.97l0.715-0.413c0.016,0.004,0.03,0.008,0.043,0.012l-0.714,0.415        C0.89,24.979,0.877,24.973,0.863,24.97" fill="#454545"/>						<path d="M0.907,24.983l0.714-0.415c0.013,0.004,0.029,0.009,0.042,0.013l-0.716,0.416        C0.932,24.992,0.919,24.988,0.907,24.983" fill="#474747"/>						<path d="M0.947,24.997l0.716-0.416c0.013,0.004,0.029,0.013,0.042,0.017l-0.716,0.414        C0.976,25.006,0.962,25.001,0.947,24.997" fill="#494949"/>						<path d="M0.989,25.012l0.716-0.414c0.014,0.006,0.027,0.012,0.042,0.018L1.03,25.031        C1.017,25.023,1.004,25.017,0.989,25.012" fill="#4B4B4B"/>						<path d="M1.03,25.031l0.717-0.416c0.013,0.006,0.026,0.012,0.042,0.018l-0.717,0.418        C1.059,25.044,1.043,25.037,1.03,25.031" fill="#4E4E4E"/>						<path d="M1.072,25.051l0.717-0.418c0.013,0.01,0.027,0.018,0.043,0.023L1.115,25.07        C1.102,25.063,1.086,25.057,1.072,25.051" fill="#505050"/>						<path d="M1.115,25.07l0.717-0.414c0.01,0.006,0.021,0.014,0.031,0.018L1.15,25.09        C1.136,25.084,1.125,25.078,1.115,25.07" fill="#525252"/>					</g>				</g>				<g enable-background="new    ">					<g clip-path="url(#SVGIDRack_server_1U_4_)" enable-background="new    ">						<polyline fill="#525252" points="1.15,25.09 1.864,24.674 1.874,24.68 1.16,25.096 1.15,25.09       "/>						<path d="M1.16,25.096l0.714-0.416c0.016,0.012,0.03,0.021,0.044,0.027l-0.715,0.414        C1.187,25.112,1.174,25.104,1.16,25.096" fill="#545454"/>						<path d="M1.203,25.121l0.715-0.414c0.017,0.01,0.031,0.02,0.044,0.032L1.248,25.15        C1.231,25.143,1.217,25.133,1.203,25.121" fill="#565656"/>						<path d="M1.248,25.15l0.714-0.411c0.018,0.009,0.032,0.021,0.046,0.029l-0.717,0.415        C1.276,25.174,1.262,25.16,1.248,25.15" fill="#585858"/>						<path d="M1.291,25.184l0.717-0.415c0.014,0.01,0.031,0.024,0.045,0.036l-0.717,0.412        C1.322,25.206,1.308,25.195,1.291,25.184" fill="#5A5A5A"/>						<path d="M1.336,25.217l0.717-0.412c0.015,0.011,0.032,0.023,0.047,0.037l-0.717,0.414        C1.369,25.244,1.354,25.232,1.336,25.217" fill="#5C5C5C"/>						<path d="M1.383,25.256l0.717-0.414c0.014,0.014,0.031,0.025,0.045,0.041L1.43,25.296        C1.415,25.283,1.401,25.27,1.383,25.256" fill="#5E5E5E"/>						<path d="M1.43,25.296l0.716-0.413c0.015,0.014,0.032,0.027,0.047,0.041l-0.717,0.414        C1.461,25.326,1.446,25.309,1.43,25.296" fill="#606060"/>						<path d="M1.476,25.338l0.717-0.414c0.013,0.015,0.027,0.029,0.043,0.044L1.52,25.383        C1.506,25.367,1.492,25.354,1.476,25.338" fill="#626262"/>						<path d="M1.52,25.383l0.717-0.415c0.013,0.016,0.027,0.029,0.043,0.044l-0.717,0.416        C1.549,25.411,1.534,25.396,1.52,25.383" fill="#646464"/>						<path d="M1.562,25.428l0.717-0.416c0.013,0.018,0.025,0.031,0.041,0.045l-0.717,0.416        C1.59,25.455,1.576,25.441,1.562,25.428" fill="#666666"/>						<path d="M1.604,25.473l0.717-0.416c0.012,0.016,0.025,0.033,0.038,0.047L1.645,25.52        C1.629,25.502,1.617,25.487,1.604,25.473" fill="#787878"/>						<path d="M1.645,25.52l0.714-0.416c0.016,0.016,0.028,0.033,0.041,0.05l-0.717,0.415        C1.67,25.551,1.657,25.534,1.645,25.52" fill="#808080"/>						<path d="M1.682,25.568l0.717-0.415c0.014,0.021,0.032,0.04,0.046,0.061l-0.716,0.414        C1.714,25.605,1.7,25.588,1.682,25.568" fill="#868686"/>						<path d="M1.729,25.628l0.716-0.414c0.024,0.03,0.045,0.062,0.066,0.093l-0.715,0.416        C1.774,25.691,1.752,25.659,1.729,25.628" fill="#8B8B8B"/>						<path d="M1.796,25.723l0.715-0.416c0.029,0.042,0.057,0.086,0.082,0.131l-0.716,0.414        C1.851,25.81,1.823,25.766,1.796,25.723" fill="#8F8F8F"/>						<path d="M1.876,25.852l0.716-0.414c0.016,0.029,0.033,0.057,0.048,0.084l-0.717,0.414        C1.91,25.908,1.894,25.88,1.876,25.852" fill="#8B8B8B"/>						<path d="M1.924,25.936l0.717-0.414c0.01,0.021,0.022,0.041,0.032,0.061l-0.716,0.414        C1.946,25.977,1.937,25.957,1.924,25.936" fill="#868686"/>						<path d="M1.957,25.996l0.716-0.414c0.009,0.019,0.018,0.039,0.025,0.056l-0.714,0.416        C1.973,26.033,1.965,26.016,1.957,25.996" fill="#808080"/>						<path d="M1.984,26.054l0.714-0.416c0.007,0.017,0.017,0.032,0.024,0.05l-0.717,0.413        C1.998,26.085,1.991,26.068,1.984,26.054" fill="#787878"/>						<path d="M2.005,26.101l0.717-0.413c0.006,0.014,0.013,0.032,0.02,0.049l-0.714,0.415        C2.019,26.132,2.012,26.117,2.005,26.101" fill="#666666"/>						<path d="M2.028,26.151l0.714-0.415c0.007,0.015,0.013,0.033,0.022,0.049l-0.717,0.416        C2.04,26.184,2.035,26.167,2.028,26.151" fill="#646464"/>						<path d="M2.047,26.201l0.717-0.416c0.005,0.016,0.012,0.034,0.018,0.051l-0.717,0.415        C2.059,26.232,2.052,26.217,2.047,26.201" fill="#626262"/>						<path d="M2.064,26.251l0.717-0.415c0.006,0.016,0.011,0.034,0.017,0.053l-0.715,0.415        C2.078,26.284,2.07,26.268,2.064,26.251" fill="#606060"/>						<path d="M2.084,26.304l0.715-0.415c0.005,0.018,0.014,0.035,0.019,0.051l-0.716,0.418        C2.096,26.337,2.09,26.319,2.084,26.304" fill="#5E5E5E"/>						<path d="M2.102,26.357l0.716-0.418c0.005,0.021,0.01,0.037,0.015,0.055L2.116,26.41        C2.111,26.393,2.106,26.373,2.102,26.357" fill="#5C5C5C"/>						<path d="M2.116,26.41l0.716-0.416c0.005,0.02,0.01,0.037,0.015,0.056l-0.715,0.413        C2.127,26.445,2.121,26.428,2.116,26.41" fill="#5A5A5A"/>						<path d="M2.132,26.463l0.715-0.413c0.004,0.018,0.008,0.035,0.014,0.053l-0.716,0.416        C2.141,26.498,2.136,26.48,2.132,26.463" fill="#585858"/>						<path d="M2.144,26.519l0.716-0.416c0.004,0.019,0.008,0.035,0.011,0.054L2.155,26.57        C2.151,26.553,2.147,26.537,2.144,26.519" fill="#565656"/>						<path d="M2.155,26.57l0.716-0.414c0.002,0.017,0.006,0.033,0.008,0.051l-0.716,0.416        C2.16,26.605,2.157,26.59,2.155,26.57" fill="#545454"/>						<path d="M2.163,26.623l0.716-0.416c0.003,0.018,0.005,0.033,0.007,0.052l-0.717,0.413        C2.168,26.656,2.165,26.641,2.163,26.623" fill="#525252"/>						<path d="M2.169,26.672l0.717-0.413c0.002,0.017,0.004,0.035,0.005,0.051l-0.714,0.414        C2.176,26.707,2.171,26.689,2.169,26.672" fill="#505050"/>						<path d="M2.178,26.724l0.714-0.414c0.002,0.016,0.003,0.033,0.004,0.05l-0.714,0.413        C2.18,26.758,2.179,26.741,2.178,26.724" fill="#4E4E4E"/>						<path d="M2.182,26.772l0.714-0.413c0.001,0.016,0.001,0.033,0.002,0.049l-0.715,0.414        C2.183,26.807,2.183,26.791,2.182,26.772" fill="#4B4B4B"/>						<path d="M2.183,26.822l0.715-0.414c0,0.014,0,0.031,0,0.045c0,0.002,0,0.002,0,0.004l-0.715,0.414        c0-0.002,0-0.002,0-0.004C2.184,26.854,2.183,26.84,2.183,26.822" fill="#494949"/>						<path d="M2.183,26.871l0.715-0.414c0,0.016,0,0.034-0.001,0.049l-0.714,0.412        C2.183,26.904,2.183,26.889,2.183,26.871" fill="#474747"/>						<path d="M2.183,26.918l0.714-0.412c0,0.016-0.001,0.035-0.002,0.049L2.18,26.968        C2.182,26.952,2.183,26.938,2.183,26.918" fill="#454545"/>						<path d="M2.18,26.968l0.715-0.413c-0.001,0.018-0.003,0.033-0.005,0.049l-0.715,0.414        C2.177,27.001,2.179,26.986,2.18,26.968" fill="#434343"/>						<path d="M2.175,27.018l0.715-0.414c-0.002,0.018-0.005,0.033-0.007,0.049l-0.716,0.414        C2.168,27.051,2.17,27.035,2.175,27.018" fill="#414141"/>						<path d="M2.166,27.066l0.716-0.414c-0.003,0.018-0.006,0.035-0.01,0.051L2.156,27.12        C2.159,27.102,2.163,27.084,2.166,27.066" fill="#3F3F3F"/>						<path d="M2.156,27.12l0.716-0.417c-0.003,0.016-0.008,0.036-0.013,0.053l-0.716,0.415        C2.148,27.152,2.152,27.135,2.156,27.12" fill="#3D3D3D"/>						<path d="M2.143,27.171l0.716-0.415c-0.007,0.017-0.013,0.037-0.02,0.055l-0.713,0.414        C2.132,27.205,2.138,27.188,2.143,27.171" fill="#3B3B3B"/>						<path d="M2.126,27.225l0.713-0.414c-0.007,0.02-0.015,0.039-0.023,0.057L2.1,27.283        C2.109,27.266,2.116,27.244,2.126,27.225" fill="#393939"/>						<path d="M2.1,27.283l0.717-0.416c-0.014,0.025-0.026,0.049-0.039,0.073L2.06,27.352        C2.073,27.332,2.088,27.307,2.1,27.283" fill="#373737"/>						<path d="M2.06,27.352l0.717-0.411c-0.049,0.073-0.109,0.134-0.183,0.173l-0.716,0.416        C1.952,27.488,2.011,27.429,2.06,27.352" fill="#353535"/>					</g>				</g>				<g>					<path d="M1.15,25.09c0.569,0.33,1.035,1.125,1.033,1.777c0,0.656-0.471,0.92-1.042,0.594       c-0.57-0.33-1.037-1.134-1.035-1.787C0.108,25.02,0.578,24.761,1.15,25.09z M1.52,27.23l0.372-0.529l-0.368-0.957l-0.752-0.434       L0.398,25.84l0.369,0.959L1.52,27.23" fill="#373737"/>				</g>			</g>		</g>	</g>	<g>		<g a:adobe-knockout="true">			<g a:adobe-knockout="false" enable-background="new    ">				<g>					<polygon fill="#616161" points="0.292,31.955 1.009,31.541 1.375,32.498 0.661,32.913      "/>				</g>				<g>					<polygon fill="#585858" points="0.661,32.913 1.375,32.498 2.129,32.93 1.413,33.346      "/>				</g>				<g>					<polygon fill="#616161" points="0.665,31.426 1.379,31.014 1.009,31.541 0.292,31.955      "/>				</g>				<g enable-background="new    ">					<g clip-path="url(#SVGIDRack_server_1U_6_)" enable-background="new    ">						<path d="M0.3,31.133l0.716-0.414c0.025-0.018,0.055-0.03,0.085-0.039l-0.716,0.413        C0.354,31.104,0.328,31.119,0.3,31.133" fill="#353535"/>						<path d="M0.385,31.093l0.716-0.413c0.022-0.008,0.048-0.018,0.073-0.023l-0.717,0.418        C0.433,31.079,0.407,31.085,0.385,31.093" fill="#373737"/>						<path d="M0.457,31.074l0.717-0.418c0.018-0.002,0.04-0.004,0.059-0.006l-0.714,0.415        C0.497,31.067,0.478,31.07,0.457,31.074" fill="#393939"/>						<path d="M0.519,31.065l0.714-0.415c0.02-0.002,0.036-0.003,0.054-0.003l-0.714,0.416        C0.552,31.063,0.535,31.065,0.519,31.065" fill="#3B3B3B"/>						<path d="M0.572,31.063l0.714-0.416c0.018,0,0.033,0.001,0.049,0.001l-0.715,0.417        C0.604,31.063,0.587,31.063,0.572,31.063" fill="#3D3D3D"/>						<path d="M0.621,31.065l0.715-0.417c0.017,0.002,0.032,0.002,0.047,0.006l-0.715,0.415        C0.65,31.067,0.636,31.065,0.621,31.065" fill="#3F3F3F"/>						<path d="M0.667,31.069l0.715-0.415c0.017,0.002,0.03,0.002,0.045,0.006l-0.715,0.417        C0.696,31.074,0.682,31.071,0.667,31.069" fill="#414141"/>						<path d="M0.713,31.077l0.715-0.417c0.016,0.002,0.029,0.007,0.043,0.012l-0.717,0.413        C0.74,31.083,0.726,31.079,0.713,31.077" fill="#434343"/>						<path d="M0.753,31.085l0.717-0.413c0.013,0.003,0.03,0.007,0.043,0.011l-0.716,0.414        C0.784,31.093,0.771,31.089,0.753,31.085" fill="#454545"/>						<path d="M0.798,31.097l0.716-0.414c0.014,0.004,0.029,0.011,0.042,0.015L0.84,31.113        C0.826,31.104,0.812,31.101,0.798,31.097" fill="#474747"/>						<path d="M0.84,31.113l0.716-0.416c0.013,0.004,0.026,0.01,0.042,0.014l-0.717,0.416        C0.869,31.121,0.853,31.117,0.84,31.113" fill="#494949"/>						<path d="M0.882,31.127l0.717-0.416c0.013,0.008,0.026,0.014,0.042,0.02l-0.717,0.414        C0.91,31.139,0.895,31.133,0.882,31.127" fill="#4B4B4B"/>						<path d="M0.923,31.145l0.717-0.414c0.013,0.006,0.026,0.012,0.04,0.019l-0.714,0.417        C0.95,31.158,0.937,31.149,0.923,31.145" fill="#4E4E4E"/>						<path d="M0.966,31.166l0.714-0.417c0.016,0.007,0.03,0.015,0.043,0.022l-0.715,0.414        C0.993,31.178,0.98,31.172,0.966,31.166" fill="#505050"/>						<path d="M1.009,31.186l0.715-0.414c0.013,0.006,0.023,0.013,0.034,0.018l-0.717,0.416        C1.029,31.197,1.019,31.191,1.009,31.186" fill="#525252"/>					</g>				</g>				<g enable-background="new    ">					<g clip-path="url(#SVGIDRack_server_1U_8_)" enable-background="new    ">						<path d="M1.041,31.205l0.717-0.416c0.003,0.002,0.006,0.004,0.01,0.006l-0.715,0.416        C1.046,31.209,1.043,31.207,1.041,31.205" fill="#525252"/>						<path d="M1.053,31.211l0.715-0.416c0.013,0.01,0.03,0.018,0.043,0.027l-0.717,0.414        C1.08,31.227,1.067,31.219,1.053,31.211" fill="#545454"/>						<path d="M1.094,31.236l0.717-0.414c0.014,0.011,0.031,0.02,0.044,0.029l-0.716,0.415        C1.125,31.257,1.11,31.246,1.094,31.236" fill="#565656"/>						<path d="M1.139,31.267l0.716-0.415c0.015,0.009,0.032,0.022,0.046,0.033l-0.717,0.413        C1.17,31.287,1.156,31.276,1.139,31.267" fill="#585858"/>						<path d="M1.184,31.298l0.717-0.413c0.014,0.009,0.031,0.021,0.045,0.035l-0.717,0.412        C1.215,31.321,1.202,31.311,1.184,31.298" fill="#5A5A5A"/>						<path d="M1.229,31.332l0.717-0.412c0.015,0.012,0.029,0.023,0.047,0.035l-0.717,0.416        C1.262,31.358,1.247,31.345,1.229,31.332" fill="#5C5C5C"/>						<path d="M1.276,31.371l0.717-0.416c0.014,0.015,0.029,0.027,0.045,0.041L1.323,31.41        C1.308,31.396,1.292,31.383,1.276,31.371" fill="#5E5E5E"/>						<path d="M1.323,31.41l0.716-0.414c0.015,0.016,0.029,0.028,0.047,0.043l-0.717,0.414        C1.355,31.438,1.337,31.424,1.323,31.41" fill="#606060"/>						<path d="M1.369,31.453l0.717-0.414c0.013,0.012,0.027,0.029,0.043,0.044l-0.717,0.415        C1.4,31.48,1.383,31.469,1.369,31.453" fill="#626262"/>						<path d="M1.413,31.498l0.717-0.415c0.013,0.014,0.027,0.03,0.041,0.044L1.456,31.54        C1.442,31.525,1.427,31.513,1.413,31.498" fill="#646464"/>						<path d="M1.456,31.54l0.715-0.413c0.016,0.016,0.028,0.031,0.041,0.045l-0.715,0.413        C1.481,31.57,1.469,31.556,1.456,31.54" fill="#666666"/>						<path d="M1.497,31.585l0.715-0.413c0.015,0.016,0.028,0.029,0.04,0.047l-0.716,0.414        C1.522,31.617,1.51,31.602,1.497,31.585" fill="#787878"/>						<path d="M1.536,31.633l0.716-0.414c0.013,0.016,0.028,0.031,0.042,0.05l-0.717,0.413        C1.563,31.666,1.55,31.649,1.536,31.633" fill="#808080"/>						<path d="M1.576,31.682l0.717-0.413c0.014,0.019,0.032,0.04,0.046,0.062l-0.716,0.413        C1.607,31.721,1.593,31.703,1.576,31.682" fill="#868686"/>						<path d="M1.623,31.743l0.716-0.413c0.021,0.029,0.044,0.059,0.065,0.092l-0.715,0.416        C1.667,31.806,1.646,31.772,1.623,31.743" fill="#8B8B8B"/>						<path d="M1.689,31.838l0.715-0.416c0.029,0.043,0.055,0.087,0.082,0.131L1.77,31.967        C1.745,31.922,1.717,31.879,1.689,31.838" fill="#8F8F8F"/>						<path d="M1.77,31.967l0.716-0.414c0.016,0.026,0.033,0.057,0.048,0.082l-0.717,0.416        C1.803,32.021,1.788,31.995,1.77,31.967" fill="#8B8B8B"/>						<path d="M1.817,32.051l0.717-0.416c0.01,0.022,0.02,0.041,0.032,0.063L1.85,32.111        C1.839,32.092,1.827,32.07,1.817,32.051" fill="#868686"/>						<path d="M1.85,32.111l0.716-0.413c0.009,0.017,0.018,0.034,0.025,0.054l-0.716,0.414        C1.866,32.148,1.858,32.131,1.85,32.111" fill="#808080"/>						<path d="M1.875,32.166l0.716-0.414c0.007,0.017,0.015,0.031,0.024,0.051l-0.717,0.411        C1.891,32.199,1.884,32.184,1.875,32.166" fill="#787878"/>						<path d="M1.898,32.214l0.717-0.411c0.006,0.014,0.013,0.029,0.02,0.049l-0.716,0.412        C1.913,32.248,1.906,32.232,1.898,32.214" fill="#666666"/>						<path d="M1.919,32.264l0.716-0.412c0.007,0.015,0.013,0.031,0.021,0.049L1.94,32.314        C1.934,32.299,1.926,32.281,1.919,32.264" fill="#646464"/>						<path d="M1.94,32.314L2.655,31.9c0.008,0.016,0.015,0.034,0.02,0.051l-0.717,0.412        C1.953,32.348,1.946,32.332,1.94,32.314" fill="#626262"/>						<path d="M1.958,32.363l0.717-0.412c0.006,0.016,0.011,0.034,0.017,0.052l-0.717,0.413        C1.969,32.399,1.964,32.383,1.958,32.363" fill="#606060"/>						<path d="M1.975,32.416l0.717-0.413c0.005,0.017,0.011,0.036,0.016,0.052l-0.714,0.418        C1.989,32.452,1.983,32.436,1.975,32.416" fill="#5E5E5E"/>						<path d="M1.995,32.473l0.714-0.418c0.008,0.018,0.013,0.037,0.017,0.055l-0.716,0.416        C2.004,32.506,1.999,32.488,1.995,32.473" fill="#5C5C5C"/>						<path d="M2.009,32.525l0.716-0.416c0.005,0.017,0.01,0.037,0.014,0.053l-0.717,0.416        C2.018,32.559,2.014,32.543,2.009,32.525" fill="#5A5A5A"/>						<path d="M2.022,32.578l0.717-0.416c0.004,0.02,0.008,0.037,0.011,0.054l-0.714,0.418        C2.034,32.611,2.029,32.596,2.022,32.578" fill="#585858"/>						<path d="M2.037,32.634l0.714-0.418c0.004,0.021,0.01,0.037,0.013,0.054l-0.716,0.415        C2.044,32.668,2.04,32.648,2.037,32.634" fill="#565656"/>						<path d="M2.048,32.685l0.716-0.415c0.002,0.018,0.006,0.035,0.008,0.051l-0.716,0.418        C2.053,32.721,2.05,32.702,2.048,32.685" fill="#545454"/>						<path d="M2.056,32.738l0.716-0.418c0.003,0.019,0.005,0.035,0.007,0.053l-0.717,0.414        C2.061,32.771,2.058,32.753,2.056,32.738" fill="#525252"/>						<path d="M2.062,32.787l0.717-0.414c0.002,0.018,0.004,0.034,0.005,0.053l-0.716,0.412        C2.066,32.823,2.064,32.803,2.062,32.787" fill="#505050"/>						<path d="M2.068,32.838l0.716-0.412c0.002,0.015,0.003,0.031,0.004,0.049l-0.716,0.412        C2.07,32.872,2.069,32.854,2.068,32.838" fill="#4E4E4E"/>						<path d="M2.072,32.887l0.716-0.412c0.001,0.016,0.001,0.031,0.002,0.049l-0.717,0.413        C2.073,32.922,2.073,32.903,2.072,32.887" fill="#4B4B4B"/>						<path d="M2.074,32.937l0.717-0.413c0,0.014,0,0.029,0,0.045c0,0.002,0,0.002,0,0.004l-0.717,0.414        c0-0.002,0-0.002,0-0.004C2.077,32.969,2.074,32.952,2.074,32.937" fill="#494949"/>						<path d="M2.074,32.986l0.717-0.414c0,0.016,0,0.031-0.001,0.049l-0.717,0.412        C2.074,33.02,2.074,33.004,2.074,32.986" fill="#474747"/>						<path d="M2.073,33.033l0.717-0.412c0,0.017-0.001,0.031-0.002,0.049L2.07,33.082        C2.072,33.066,2.073,33.053,2.073,33.033" fill="#454545"/>						<path d="M2.07,33.082l0.717-0.412c-0.001,0.017-0.003,0.03-0.005,0.049l-0.717,0.413        C2.067,33.116,2.069,33.098,2.07,33.082" fill="#434343"/>						<path d="M2.065,33.132l0.717-0.413c-0.002,0.018-0.005,0.031-0.007,0.049l-0.716,0.414        C2.062,33.166,2.063,33.146,2.065,33.132" fill="#414141"/>						<path d="M2.059,33.182l0.716-0.414c-0.003,0.018-0.006,0.033-0.01,0.051l-0.716,0.414        C2.052,33.217,2.056,33.199,2.059,33.182" fill="#3F3F3F"/>						<path d="M2.049,33.232l0.716-0.414c-0.003,0.016-0.011,0.033-0.016,0.052l-0.714,0.413        C2.041,33.268,2.045,33.25,2.049,33.232" fill="#3D3D3D"/>						<path d="M2.036,33.283L2.75,32.87c-0.004,0.017-0.01,0.038-0.017,0.056l-0.716,0.41        C2.022,33.321,2.031,33.304,2.036,33.283" fill="#3B3B3B"/>						<path d="M2.017,33.336l0.716-0.41c-0.007,0.017-0.015,0.039-0.026,0.057l-0.715,0.416        C2.002,33.379,2.009,33.359,2.017,33.336" fill="#393939"/>						<path d="M1.993,33.398l0.715-0.416c-0.011,0.025-0.023,0.049-0.037,0.073l-0.717,0.411        C1.967,33.447,1.981,33.422,1.993,33.398" fill="#373737"/>						<path d="M1.954,33.467l0.717-0.411c-0.049,0.072-0.112,0.132-0.183,0.173l-0.716,0.416        C1.845,33.604,1.905,33.544,1.954,33.467" fill="#353535"/>					</g>				</g>				<g>					<path d="M1.041,31.205c0.571,0.327,1.038,1.125,1.033,1.777c0,0.656-0.468,0.92-1.04,0.591       C0.462,33.244-0.002,32.442,0,31.789C0.002,31.135,0.471,30.876,1.041,31.205z M1.413,33.346l0.372-0.529l-0.368-0.957       l-0.752-0.434l-0.373,0.529l0.369,0.958L1.413,33.346" fill="#373737"/>				</g>			</g>		</g>	</g>	<polygon fill="#58595B" points="100,31.096 100,40.553 57.467,66.089 57.481,55.889  "/>		<polygon fill="url(#SVGIDRack_server_1U_9_)" points="100,31.096 58.965,55.193 4.609,24.033 46.674,0  "/>	<g>		<g>						<path d="M57.481,55.794l1.241-0.74c1.207,0.682,1.966,1.157,2.963,1.763     c0.705,0.426,1.105,1.344,1.093,2.229c-0.016,1.063,0.029,6.997,0,7.554c-0.041,0.691-0.648,0.86-1.536,1.378     c-0.326,0.019-0.672-0.019-1.177-0.323c-1.296-0.784-2.599-1.564-2.599-1.564L57.481,55.794z" fill="url(#SVGIDRack_server_1U_10_)"/>			<path d="M57.481,55.794c0,0,2.788,1.636,2.976,1.749c1.005,0.616,1.229,1.296,1.229,2.359s0,7.232,0,7.232     s0.059,1.532-1.62,0.519c-1-0.604-2.599-1.564-2.599-1.564L57.481,55.794z" fill="#A8A8A8"/>		</g>		<g>			<g a:adobe-knockout="true">				<g a:adobe-knockout="false" enable-background="new    ">					<g>						<polygon fill="#616161" points="58.228,58.768 58.947,58.349 59.312,59.305 58.597,59.718       "/>					</g>					<g>						<polygon fill="#585858" points="58.597,59.718 59.312,59.305 60.065,59.74 59.352,60.154       "/>					</g>					<g>						<polygon fill="#363636" points="58.601,58.234 59.315,57.821 58.947,58.349 58.228,58.768       "/>					</g>					<g enable-background="new    ">						<g clip-path="url(#SVGIDRack_server_1U_12_)" enable-background="new    ">							<path d="M58.236,57.938l0.719-0.411c0.025-0.016,0.053-0.027,0.085-0.042l-0.719,0.418         C58.293,57.913,58.267,57.925,58.236,57.938" fill="#353535"/>							<path d="M58.321,57.903l0.719-0.418c0.022-0.008,0.045-0.014,0.069-0.02l-0.715,0.414         C58.371,57.889,58.343,57.896,58.321,57.903" fill="#373737"/>							<path d="M58.395,57.88l0.715-0.414c0.018-0.004,0.043-0.006,0.062-0.008l-0.714,0.413         C58.433,57.874,58.413,57.876,58.395,57.88" fill="#393939"/>							<path d="M58.457,57.871l0.714-0.413c0.017-0.002,0.033-0.002,0.052-0.002l-0.715,0.413         C58.49,57.869,58.473,57.869,58.457,57.871" fill="#3B3B3B"/>							<path d="M58.508,57.869l0.715-0.413c0.02,0,0.035,0,0.051,0.002l-0.714,0.411         C58.54,57.869,58.522,57.867,58.508,57.869" fill="#3D3D3D"/>							<path d="M58.56,57.869l0.714-0.411c0.014,0,0.03,0.002,0.045,0.004l-0.715,0.414         C58.589,57.874,58.574,57.871,58.56,57.869" fill="#3F3F3F"/>							<path d="M58.604,57.876l0.715-0.414c0.02,0.002,0.033,0.004,0.048,0.006l-0.715,0.419         C58.632,57.88,58.618,57.878,58.604,57.876" fill="#414141"/>							<path d="M58.651,57.887l0.715-0.419c0.014,0.004,0.026,0.006,0.041,0.01l-0.715,0.418         C58.679,57.893,58.665,57.889,58.651,57.887" fill="#434343"/>							<path d="M58.692,57.896l0.715-0.418c0.013,0.004,0.032,0.008,0.045,0.012l-0.719,0.418         C58.72,57.903,58.706,57.899,58.692,57.896" fill="#454545"/>							<path d="M58.733,57.907l0.719-0.418c0.014,0.009,0.026,0.013,0.04,0.017l-0.714,0.413         C58.764,57.915,58.751,57.909,58.733,57.907" fill="#474747"/>							<path d="M58.778,57.919l0.714-0.413c0.013,0.006,0.026,0.01,0.045,0.016l-0.72,0.413         C58.805,57.929,58.791,57.925,58.778,57.919" fill="#494949"/>							<path d="M58.817,57.935l0.72-0.413c0.013,0.006,0.026,0.011,0.039,0.017l-0.715,0.414         C58.849,57.945,58.831,57.938,58.817,57.935" fill="#4B4B4B"/>							<path d="M58.861,57.952l0.715-0.414c0.014,0.005,0.026,0.013,0.04,0.019l-0.715,0.413         C58.888,57.964,58.875,57.958,58.861,57.952" fill="#4E4E4E"/>							<path d="M58.901,57.97l0.715-0.413c0.018,0.008,0.032,0.014,0.045,0.021l-0.714,0.418         C58.93,57.988,58.915,57.982,58.901,57.97" fill="#505050"/>							<path d="M58.947,57.996l0.714-0.418c0.011,0.005,0.021,0.016,0.032,0.021l-0.714,0.415         C58.968,58.009,58.958,58.001,58.947,57.996" fill="#525252"/>						</g>					</g>					<g enable-background="new    ">						<g clip-path="url(#SVGIDRack_server_1U_14_)" enable-background="new    ">							<polyline fill="#525252" points="58.979,58.015 59.693,57.6 59.704,57.605 58.989,58.019 58.979,58.015        "/>							<path d="M58.989,58.019l0.715-0.413c0.018,0.009,0.032,0.017,0.046,0.027l-0.72,0.413         C59.017,58.036,59.003,58.028,58.989,58.019" fill="#545454"/>							<path d="M59.03,58.046l0.72-0.413c0.014,0.009,0.028,0.017,0.041,0.026l-0.714,0.414         C59.063,58.062,59.049,58.053,59.03,58.046" fill="#565656"/>							<path d="M59.077,58.073l0.714-0.414c0.016,0.01,0.034,0.021,0.049,0.036l-0.72,0.411         C59.105,58.098,59.092,58.088,59.077,58.073" fill="#585858"/>							<path d="M59.12,58.106l0.72-0.411c0.014,0.01,0.028,0.021,0.043,0.031l-0.715,0.414         C59.153,58.128,59.14,58.118,59.12,58.106" fill="#5A5A5A"/>							<path d="M59.168,58.141l0.715-0.414c0.015,0.013,0.034,0.023,0.049,0.037l-0.72,0.418         C59.198,58.165,59.183,58.152,59.168,58.141" fill="#5C5C5C"/>							<path d="M59.212,58.182l0.72-0.418c0.015,0.012,0.029,0.029,0.043,0.041l-0.714,0.414         C59.246,58.208,59.232,58.193,59.212,58.182" fill="#5E5E5E"/>							<path d="M59.261,58.219l0.714-0.414c0.016,0.015,0.029,0.028,0.05,0.041l-0.719,0.414         C59.29,58.246,59.275,58.232,59.261,58.219" fill="#606060"/>							<path d="M59.306,58.26l0.719-0.414c0.013,0.014,0.027,0.028,0.042,0.047l-0.715,0.413         C59.339,58.292,59.319,58.278,59.306,58.26" fill="#626262"/>							<path d="M59.352,58.306l0.715-0.413c0.013,0.015,0.027,0.026,0.045,0.042l-0.72,0.414         C59.379,58.332,59.365,58.318,59.352,58.306" fill="#646464"/>							<path d="M59.392,58.349l0.72-0.414c0.014,0.014,0.025,0.027,0.039,0.048l-0.715,0.412         C59.417,58.38,59.405,58.362,59.392,58.349" fill="#666666"/>							<path d="M59.436,58.395l0.715-0.412c0.012,0.014,0.025,0.03,0.037,0.046l-0.714,0.411         C59.461,58.426,59.448,58.411,59.436,58.395" fill="#787878"/>							<path d="M59.474,58.439l0.714-0.411c0.014,0.014,0.03,0.03,0.044,0.045l-0.72,0.418         C59.499,58.476,59.486,58.455,59.474,58.439" fill="#808080"/>							<path d="M59.512,58.491l0.72-0.418c0.014,0.024,0.029,0.043,0.043,0.062l-0.714,0.414         C59.546,58.529,59.531,58.511,59.512,58.491" fill="#868686"/>							<path d="M59.561,58.55l0.714-0.414c0.021,0.029,0.047,0.063,0.068,0.093l-0.715,0.415         C59.603,58.613,59.581,58.583,59.561,58.55" fill="#8B8B8B"/>							<path d="M59.628,58.644l0.715-0.415c0.026,0.046,0.052,0.088,0.081,0.13l-0.718,0.419         C59.681,58.729,59.655,58.688,59.628,58.644" fill="#8F8F8F"/>							<path d="M59.706,58.777l0.718-0.419c0.018,0.03,0.031,0.059,0.047,0.085l-0.715,0.418         C59.741,58.83,59.727,58.805,59.706,58.777" fill="#8B8B8B"/>							<path d="M59.756,58.861l0.715-0.418c0.01,0.02,0.02,0.044,0.034,0.063l-0.719,0.411         C59.775,58.898,59.766,58.882,59.756,58.861" fill="#868686"/>							<path d="M59.786,58.918l0.719-0.411c0.009,0.016,0.018,0.035,0.025,0.051l-0.719,0.418         C59.803,58.958,59.794,58.937,59.786,58.918" fill="#808080"/>							<path d="M59.812,58.976l0.719-0.418c0.007,0.021,0.015,0.035,0.021,0.052l-0.715,0.413         C59.83,59.007,59.822,58.991,59.812,58.976" fill="#787878"/>							<path d="M59.837,59.022l0.715-0.413c0.006,0.016,0.013,0.03,0.02,0.046l-0.714,0.419         C59.851,59.058,59.844,59.038,59.837,59.022" fill="#666666"/>							<path d="M59.857,59.074l0.714-0.419c0.007,0.021,0.013,0.036,0.02,0.052l-0.715,0.415         C59.869,59.104,59.864,59.09,59.857,59.074" fill="#646464"/>							<path d="M59.876,59.122l0.715-0.415c0.011,0.018,0.018,0.033,0.022,0.054l-0.72,0.414         C59.889,59.157,59.882,59.137,59.876,59.122" fill="#626262"/>							<path d="M59.894,59.175l0.72-0.414c0.006,0.017,0.012,0.033,0.018,0.05l-0.715,0.413         C59.905,59.209,59.899,59.19,59.894,59.175" fill="#606060"/>							<path d="M59.916,59.224l0.715-0.413c0.005,0.018,0.011,0.034,0.016,0.055l-0.714,0.414         C59.927,59.262,59.922,59.241,59.916,59.224" fill="#5E5E5E"/>							<path d="M59.933,59.279l0.714-0.414c0.006,0.019,0.011,0.035,0.015,0.051l-0.714,0.415         C59.942,59.312,59.938,59.297,59.933,59.279" fill="#5C5C5C"/>							<path d="M59.947,59.331l0.714-0.415c0.005,0.018,0.01,0.04,0.015,0.058l-0.715,0.413         C59.956,59.369,59.952,59.353,59.947,59.331" fill="#5A5A5A"/>							<path d="M59.961,59.387l0.715-0.413c0.004,0.018,0.008,0.033,0.011,0.051l-0.714,0.418         C59.97,59.421,59.965,59.403,59.961,59.387" fill="#585858"/>							<path d="M59.973,59.442l0.714-0.418c0.004,0.018,0.013,0.037,0.016,0.056l-0.719,0.413         C59.979,59.476,59.976,59.458,59.973,59.442" fill="#565656"/>							<path d="M59.983,59.493l0.719-0.413c0.003,0.016,0.007,0.032,0.009,0.048l-0.719,0.42         C59.989,59.525,59.986,59.509,59.983,59.493" fill="#545454"/>							<path d="M59.992,59.548l0.719-0.42c0.003,0.022,0.005,0.039,0.007,0.055l-0.72,0.413         C59.997,59.578,59.994,59.563,59.992,59.548" fill="#525252"/>							<path d="M59.998,59.596l0.72-0.413c0.002,0.016,0.004,0.031,0.005,0.047l-0.719,0.418         C60.002,59.628,60,59.612,59.998,59.596" fill="#505050"/>							<path d="M60.004,59.647l0.719-0.418c0.002,0.021,0.003,0.035,0.004,0.054l-0.714,0.411         C60.006,59.68,60.005,59.663,60.004,59.647" fill="#4E4E4E"/>							<path d="M60.013,59.694l0.714-0.411c0.001,0.014,0.002,0.029,0.003,0.046l-0.715,0.417         C60.014,59.726,60.014,59.71,60.013,59.694" fill="#4B4B4B"/>							<path d="M60.015,59.746l0.715-0.417c0,0.02,0,0.033,0,0.048v0.002l-0.715,0.413V59.79         C60.016,59.775,60.015,59.762,60.015,59.746" fill="#494949"/>							<path d="M60.015,59.792l0.715-0.413c0,0.016,0,0.034-0.001,0.047l-0.715,0.418         C60.015,59.824,60.015,59.809,60.015,59.792" fill="#474747"/>							<path d="M60.014,59.844l0.715-0.418c-0.001,0.021-0.002,0.036-0.003,0.052l-0.72,0.412         C60.013,59.876,60.014,59.859,60.014,59.844" fill="#454545"/>							<path d="M60.006,59.89l0.72-0.412c-0.001,0.016-0.003,0.031-0.005,0.048l-0.72,0.419         C60.003,59.928,60.005,59.907,60.006,59.89" fill="#434343"/>							<path d="M60.001,59.944l0.72-0.419c-0.002,0.021-0.005,0.036-0.007,0.05l-0.719,0.415         C59.997,59.973,59.999,59.959,60.001,59.944" fill="#414141"/>							<path d="M59.995,59.99l0.719-0.415c-0.003,0.017-0.006,0.033-0.01,0.049l-0.719,0.418         C59.988,60.026,59.992,60.006,59.995,59.99" fill="#3F3F3F"/>							<path d="M59.985,60.042l0.719-0.418c-0.004,0.021-0.014,0.037-0.018,0.056l-0.715,0.413         C59.977,60.075,59.98,60.059,59.985,60.042" fill="#3D3D3D"/>							<path d="M59.972,60.093l0.715-0.413c-0.005,0.017-0.011,0.032-0.018,0.056l-0.714,0.413         C59.961,60.13,59.967,60.107,59.972,60.093" fill="#3B3B3B"/>							<path d="M59.955,60.148l0.714-0.413c-0.007,0.019-0.015,0.036-0.023,0.053l-0.715,0.417         C59.94,60.185,59.947,60.167,59.955,60.148" fill="#393939"/>							<path d="M59.931,60.205l0.715-0.417c-0.011,0.026-0.023,0.053-0.036,0.073l-0.72,0.415         C59.902,60.254,59.92,60.232,59.931,60.205" fill="#373737"/>							<path d="M59.89,60.276l0.72-0.415c-0.052,0.079-0.114,0.133-0.184,0.179l-0.718,0.411         C59.781,60.415,59.843,60.354,59.89,60.276" fill="#353535"/>						</g>					</g>					<g>						<path d="M58.979,58.015c0.57,0.326,1.037,1.119,1.035,1.775c-0.001,0.655-0.471,0.922-1.042,0.59        c-0.572-0.327-1.039-1.128-1.037-1.783C57.938,57.943,58.407,57.684,58.979,58.015z M59.352,60.154l0.372-0.532l-0.368-0.951        l-0.755-0.437l-0.373,0.533l0.369,0.95L59.352,60.154" fill="#373737"/>					</g>				</g>			</g>		</g>		<g>			<g a:adobe-knockout="true">				<g a:adobe-knockout="false" enable-background="new    ">					<g>						<polygon fill="#616161" points="58.228,65.131 58.947,64.72 59.312,65.674 58.597,66.089       "/>					</g>					<g>						<polygon fill="#585858" points="58.597,66.089 59.312,65.674 60.065,66.104 59.352,66.519       "/>					</g>					<g>						<polygon fill="#363636" points="58.601,64.611 59.315,64.193 58.947,64.72 58.228,65.131       "/>					</g>					<g enable-background="new    ">						<g clip-path="url(#SVGIDRack_server_1U_16_)" enable-background="new    ">							<path d="M58.236,64.31l0.719-0.419c0.025-0.015,0.053-0.026,0.085-0.036l-0.719,0.413         C58.293,64.277,58.267,64.291,58.236,64.31" fill="#353535"/>							<path d="M58.321,64.268l0.719-0.413c0.022-0.009,0.045-0.015,0.069-0.02l-0.715,0.414         C58.371,64.255,58.343,64.26,58.321,64.268" fill="#373737"/>							<path d="M58.395,64.249l0.715-0.414c0.018-0.002,0.043-0.006,0.062-0.008l-0.714,0.413         C58.433,64.242,58.413,64.246,58.395,64.249" fill="#393939"/>							<path d="M58.457,64.24l0.714-0.413c0.017-0.002,0.033-0.002,0.052-0.002l-0.715,0.413         C58.49,64.238,58.473,64.24,58.457,64.24" fill="#3B3B3B"/>							<path d="M58.508,64.238l0.715-0.413c0.02,0,0.035,0,0.051,0.002L58.56,64.24         C58.54,64.238,58.522,64.238,58.508,64.238" fill="#3D3D3D"/>							<path d="M58.56,64.24l0.714-0.413c0.014,0,0.03,0.002,0.045,0.004l-0.715,0.413         C58.589,64.242,58.574,64.24,58.56,64.24" fill="#3F3F3F"/>							<path d="M58.604,64.244l0.715-0.413c0.02,0.002,0.033,0.004,0.048,0.007l-0.715,0.415         C58.632,64.249,58.618,64.246,58.604,64.244" fill="#414141"/>							<path d="M58.651,64.253l0.715-0.415c0.014,0.002,0.026,0.006,0.041,0.01l-0.715,0.412         C58.679,64.258,58.665,64.255,58.651,64.253" fill="#434343"/>							<path d="M58.692,64.26l0.715-0.412c0.013,0.003,0.032,0.007,0.045,0.011l-0.719,0.413         C58.72,64.268,58.706,64.264,58.692,64.26" fill="#454545"/>							<path d="M58.733,64.271l0.719-0.413c0.014,0.004,0.026,0.01,0.04,0.014l-0.714,0.413         C58.764,64.279,58.751,64.275,58.733,64.271" fill="#474747"/>							<path d="M58.778,64.285l0.714-0.413c0.013,0.004,0.026,0.01,0.045,0.014l-0.72,0.413         C58.805,64.295,58.791,64.289,58.778,64.285" fill="#494949"/>							<path d="M58.817,64.299l0.72-0.413c0.013,0.005,0.026,0.011,0.039,0.017l-0.715,0.419         C58.849,64.315,58.831,64.31,58.817,64.299" fill="#4B4B4B"/>							<path d="M58.861,64.321l0.715-0.419c0.014,0.006,0.026,0.018,0.04,0.025l-0.715,0.413         C58.888,64.333,58.875,64.327,58.861,64.321" fill="#4E4E4E"/>							<path d="M58.901,64.341l0.715-0.413c0.018,0.006,0.032,0.014,0.045,0.019l-0.714,0.414         C58.93,64.353,58.915,64.347,58.901,64.341" fill="#505050"/>							<path d="M58.947,64.36l0.714-0.414c0.011,0.006,0.021,0.012,0.032,0.018l-0.714,0.413         C58.968,64.371,58.958,64.365,58.947,64.36" fill="#525252"/>						</g>					</g>					<g enable-background="new    ">						<g clip-path="url(#SVGIDRack_server_1U_18_)" enable-background="new    ">							<polyline fill="#525252" points="58.979,64.377 59.693,63.964 59.704,63.97 58.989,64.384 58.979,64.377        "/>							<path d="M58.989,64.384l0.715-0.414c0.018,0.01,0.032,0.019,0.046,0.025l-0.72,0.419         C59.017,64.406,59.003,64.392,58.989,64.384" fill="#545454"/>							<path d="M59.03,64.414l0.72-0.419c0.014,0.01,0.028,0.022,0.041,0.034l-0.714,0.412         C59.063,64.431,59.049,64.423,59.03,64.414" fill="#565656"/>							<path d="M59.077,64.441l0.714-0.412c0.016,0.008,0.034,0.019,0.049,0.03l-0.72,0.413         C59.105,64.462,59.092,64.452,59.077,64.441" fill="#585858"/>							<path d="M59.12,64.473l0.72-0.413c0.014,0.01,0.028,0.021,0.043,0.033l-0.715,0.418         C59.153,64.494,59.14,64.482,59.12,64.473" fill="#5A5A5A"/>							<path d="M59.168,64.511l0.715-0.418c0.015,0.011,0.034,0.028,0.049,0.04l-0.72,0.413         C59.198,64.534,59.183,64.522,59.168,64.511" fill="#5C5C5C"/>							<path d="M59.212,64.546l0.72-0.413c0.015,0.012,0.029,0.024,0.043,0.038l-0.714,0.414         C59.246,64.571,59.232,64.56,59.212,64.546" fill="#5E5E5E"/>							<path d="M59.261,64.585l0.714-0.414c0.016,0.015,0.029,0.026,0.05,0.046l-0.719,0.411         C59.29,64.617,59.275,64.602,59.261,64.585" fill="#606060"/>							<path d="M59.306,64.628l0.719-0.411c0.013,0.012,0.027,0.027,0.042,0.041l-0.715,0.412         C59.339,64.656,59.319,64.642,59.306,64.628" fill="#626262"/>							<path d="M59.352,64.67l0.715-0.412c0.013,0.014,0.027,0.027,0.045,0.041l-0.72,0.419         C59.379,64.703,59.365,64.685,59.352,64.67" fill="#646464"/>							<path d="M59.392,64.718l0.72-0.419c0.014,0.021,0.025,0.034,0.039,0.048l-0.715,0.413         C59.417,64.746,59.405,64.73,59.392,64.718" fill="#666666"/>							<path d="M59.436,64.76l0.715-0.413c0.012,0.016,0.025,0.028,0.037,0.045l-0.714,0.418         C59.461,64.794,59.448,64.773,59.436,64.76" fill="#787878"/>							<path d="M59.474,64.81l0.714-0.418c0.014,0.021,0.03,0.035,0.044,0.052l-0.72,0.414         C59.499,64.841,59.486,64.826,59.474,64.81" fill="#808080"/>							<path d="M59.512,64.857l0.72-0.414c0.014,0.019,0.029,0.037,0.043,0.062l-0.715,0.414         C59.546,64.898,59.531,64.877,59.512,64.857" fill="#868686"/>							<path d="M59.56,64.919l0.715-0.414c0.021,0.029,0.047,0.059,0.067,0.095l-0.714,0.413         C59.602,64.977,59.581,64.947,59.56,64.919" fill="#8B8B8B"/>							<path d="M59.628,65.013l0.714-0.413c0.027,0.04,0.053,0.081,0.082,0.128l-0.718,0.415         C59.681,65.099,59.655,65.052,59.628,65.013" fill="#8F8F8F"/>							<path d="M59.706,65.143l0.718-0.415c0.018,0.026,0.031,0.055,0.047,0.084l-0.715,0.414         C59.741,65.199,59.727,65.167,59.706,65.143" fill="#8B8B8B"/>							<path d="M59.756,65.226l0.715-0.414c0.01,0.021,0.02,0.04,0.034,0.06l-0.719,0.418         C59.775,65.265,59.766,65.246,59.756,65.226" fill="#868686"/>							<path d="M59.786,65.289l0.719-0.418c0.009,0.021,0.018,0.039,0.025,0.058l-0.719,0.413         C59.803,65.324,59.794,65.305,59.786,65.289" fill="#808080"/>							<path d="M59.812,65.342l0.719-0.413c0.007,0.015,0.015,0.028,0.021,0.046l-0.715,0.417         C59.83,65.378,59.822,65.355,59.812,65.342" fill="#787878"/>							<path d="M59.837,65.392l0.715-0.417c0.006,0.019,0.013,0.036,0.02,0.052l-0.714,0.411         C59.851,65.422,59.844,65.407,59.837,65.392" fill="#666666"/>							<path d="M59.857,65.438l0.714-0.411c0.007,0.014,0.013,0.031,0.02,0.047l-0.715,0.418         C59.869,65.476,59.864,65.456,59.857,65.438" fill="#646464"/>							<path d="M59.876,65.491l0.715-0.418c0.011,0.021,0.018,0.035,0.022,0.052l-0.72,0.413         C59.889,65.522,59.882,65.507,59.876,65.491" fill="#626262"/>							<path d="M59.894,65.538l0.72-0.413c0.006,0.018,0.012,0.032,0.018,0.05l-0.715,0.418         C59.905,65.577,59.899,65.556,59.894,65.538" fill="#606060"/>							<path d="M59.916,65.593l0.715-0.418c0.005,0.022,0.011,0.039,0.016,0.055l-0.714,0.414         C59.927,65.627,59.922,65.61,59.916,65.593" fill="#5E5E5E"/>							<path d="M59.933,65.644l0.714-0.414c0.006,0.019,0.011,0.035,0.015,0.058L59.947,65.7         C59.942,65.683,59.938,65.661,59.933,65.644" fill="#5C5C5C"/>							<path d="M59.947,65.7l0.714-0.413c0.005,0.016,0.01,0.035,0.015,0.051l-0.715,0.413         C59.956,65.733,59.952,65.719,59.947,65.7" fill="#5A5A5A"/>							<path d="M59.961,65.751l0.715-0.413c0.004,0.018,0.008,0.04,0.011,0.056l-0.714,0.413         C59.97,65.789,59.965,65.773,59.961,65.751" fill="#585858"/>							<path d="M59.973,65.807l0.714-0.413c0.004,0.018,0.013,0.034,0.016,0.051l-0.719,0.418         C59.979,65.839,59.976,65.824,59.973,65.807" fill="#565656"/>							<path d="M59.983,65.862l0.719-0.418c0.003,0.016,0.007,0.037,0.009,0.053l-0.719,0.414         C59.989,65.895,59.986,65.88,59.983,65.862" fill="#545454"/>							<path d="M59.992,65.911l0.719-0.414c0.003,0.017,0.005,0.033,0.007,0.049l-0.72,0.419         C59.997,65.944,59.994,65.929,59.992,65.911" fill="#525252"/>							<path d="M59.998,65.965l0.72-0.419c0.002,0.016,0.004,0.039,0.005,0.055l-0.719,0.413         C60.002,65.996,60,65.981,59.998,65.965" fill="#505050"/>							<path d="M60.004,66.014l0.719-0.413c0.002,0.016,0.003,0.03,0.004,0.047l-0.714,0.418         C60.006,66.044,60.005,66.029,60.004,66.014" fill="#4E4E4E"/>							<path d="M60.013,66.065l0.714-0.418c0.001,0.021,0.002,0.035,0.003,0.051l-0.715,0.414         C60.014,66.095,60.014,66.081,60.013,66.065" fill="#4B4B4B"/>							<path d="M60.015,66.112l0.715-0.414c0,0.015,0,0.03,0,0.043c0,0.002,0,0.002,0,0.004l-0.715,0.418         c0-0.002,0-0.002,0-0.004C60.016,66.142,60.015,66.126,60.015,66.112" fill="#494949"/>							<path d="M60.015,66.163l0.715-0.418c0,0.021,0,0.037-0.001,0.052l-0.715,0.413         C60.015,66.195,60.015,66.18,60.015,66.163" fill="#474747"/>							<path d="M60.014,66.21l0.715-0.413c-0.001,0.016-0.002,0.031-0.003,0.047l-0.72,0.418         C60.013,66.242,60.014,66.226,60.014,66.21" fill="#454545"/>							<path d="M60.006,66.262l0.72-0.418c-0.002,0.021-0.003,0.038-0.005,0.051l-0.72,0.414         C60.003,66.293,60.005,66.277,60.006,66.262" fill="#434343"/>							<path d="M60.001,66.309l0.72-0.414c-0.002,0.017-0.005,0.034-0.007,0.047l-0.719,0.419         C59.997,66.341,59.999,66.327,60.001,66.309" fill="#414141"/>							<path d="M59.995,66.36l0.719-0.419c-0.003,0.023-0.006,0.04-0.01,0.055l-0.72,0.414         C59.988,66.395,59.991,66.379,59.995,66.36" fill="#3F3F3F"/>							<path d="M59.984,66.41l0.72-0.414c-0.004,0.018-0.014,0.035-0.018,0.051l-0.715,0.419         C59.976,66.448,59.98,66.427,59.984,66.41" fill="#3D3D3D"/>							<path d="M59.972,66.466l0.715-0.419c-0.005,0.022-0.012,0.04-0.018,0.055l-0.715,0.415         C59.961,66.5,59.967,66.482,59.972,66.466" fill="#3B3B3B"/>							<path d="M59.954,66.517l0.715-0.415c-0.008,0.021-0.015,0.04-0.023,0.062l-0.715,0.414         C59.939,66.56,59.947,66.535,59.954,66.517" fill="#393939"/>							<path d="M59.931,66.577l0.715-0.414c-0.011,0.024-0.023,0.045-0.036,0.066l-0.72,0.419         C59.902,66.622,59.92,66.601,59.931,66.577" fill="#373737"/>							<path d="M59.89,66.648l0.72-0.419c-0.052,0.075-0.108,0.137-0.182,0.177l-0.719,0.413         C59.782,66.781,59.844,66.722,59.89,66.648" fill="#353535"/>						</g>					</g>					<g>						<path d="M58.979,64.377c0.57,0.332,1.037,1.128,1.035,1.782c-0.001,0.658-0.471,0.916-1.042,0.592        c-0.572-0.332-1.039-1.127-1.037-1.79C57.938,64.311,58.407,64.051,58.979,64.377z M59.352,66.519l0.372-0.527l-0.368-0.951        l-0.755-0.429l-0.373,0.52l0.369,0.958L59.352,66.519" fill="#373737"/>					</g>				</g>			</g>		</g>	</g>	<polygon fill="#DCDCDC" points="3.367,24.76 4.609,24.033 58.723,55.054 57.481,55.794  "/>	<g a:adobe-knockout="true">		<g a:adobe-knockout="false" enable-background="new    ">			<g a:adobe-knockout="true" clip-path="url(#SVGIDRack_server_1U_20_)">				<path a:adobe-knockout="false" d="M5.536,33.159l0.003-1.342l8.843,5.105l-0.004,1.342L5.536,33.159       M5.541,31.325l0.004-1.343l8.843,5.106l-0.004,1.342L5.541,31.325 M18.725,36.945l-13.74-7.933l-0.013,4.461l13.74,7.933      L18.725,36.945" fill="#171717"/>				<polyline a:adobe-knockout="false" fill="#888888" points="14.388,35.089 5.545,29.982 5.541,31.325 14.384,36.431       14.388,35.089     "/>				<polyline a:adobe-knockout="false" fill="#888888" points="14.383,36.923 5.54,31.817 5.536,33.159 14.379,38.265       14.383,36.923     "/>			</g>		</g>	</g>	<g a:adobe-knockout="true">		<g a:adobe-knockout="false" enable-background="new    ">			<g a:adobe-knockout="true" clip-path="url(#SVGIDRack_server_1U_22_)">				<path a:adobe-knockout="false" d="M21.022,42.001l0.003-1.342l8.843,5.105l-0.004,1.342L21.022,42.001       M21.027,40.167l0.004-1.343l8.843,5.106l-0.004,1.342L21.027,40.167 M34.211,45.787l-13.74-7.933l-0.013,4.461l13.74,7.933      L34.211,45.787" fill="#171717"/>				<polyline a:adobe-knockout="false" fill="#888888" points="29.874,43.931 21.031,38.824 21.027,40.167 29.87,45.272       29.874,43.931     "/>				<polyline a:adobe-knockout="false" fill="#888888" points="29.869,45.765 21.025,40.659 21.022,42.001 29.865,47.106       29.869,45.765     "/>			</g>		</g>	</g>	<g a:adobe-knockout="true">		<g a:adobe-knockout="false" enable-background="new    ">			<g a:adobe-knockout="true" clip-path="url(#SVGIDRack_server_1U_24_)">				<path a:adobe-knockout="false" d="M36.566,51.032l0.003-1.342l8.843,5.105l-0.004,1.342L36.566,51.032       M36.571,49.198l0.004-1.343l8.843,5.106l-0.004,1.342L36.571,49.198 M49.755,54.818l-13.74-7.933l-0.013,4.461l13.74,7.933      L49.755,54.818" fill="#171717"/>				<polyline a:adobe-knockout="false" fill="#888888" points="45.418,52.962 36.575,47.855 36.571,49.198 45.414,54.304       45.418,52.962     "/>				<polyline a:adobe-knockout="false" fill="#888888" points="45.413,54.796 36.569,49.69 36.566,51.032 45.409,56.138       45.413,54.796     "/>			</g>		</g>	</g></g></symbol></defs><g transform='translate(441.0,102.0) rotate(0.0 60.0 41.0)'><use xlink:href='#com.gliffy.newnetwork.business.Rack_Server_1U' width='120.0' height='82.0'  fill="#003366"/><g  transform='translate(0.0,99.0)'><text x='60.0' style='text-anchor: middle' y='-2.0'><tspan xml:space='preserve' font-size='12' font-family='Arial' fill='#000000' >Server</tspan></text></g></g><defs><linearGradient gradientUnits="userSpaceOnUse" id="SVGIDhub_1_" x1="103.1504" x2="7.8606" xlink:actuate="onLoad" xlink:show="other" xlink:type="simple" xmlns:xlink="http://www.w3.org/1999/xlink" y1="31.7881" y2="20.9595">		<stop offset="0" style="stop-color:#242424"/>		<stop offset="1" style="stop-color:#CBCBCB"/>		<a:midPointStop offset="0" style="stop-color:#242424"/>		<a:midPointStop offset="0.5" style="stop-color:#242424"/>		<a:midPointStop offset="1" style="stop-color:#CBCBCB"/>	</linearGradient><symbol id="com.gliffy.newnetwork.business.Hub" viewBox="0 0 100 70" preserveAspectRatio="none"><g id="Layer_0">	<rect fill="none" height="70" width="99.939"/>	<polygon points="0,20.471 6.125,16.92 68.51,52.351 68.51,66.532 62.464,70 62.383,55.835  "/></g><g id="Layer_1">	<rect fill="none" height="70" width="99.939"/>	<g>		<polygon fill="#4A4A4A" points="62.383,55.835 62.464,70 0.001,34.61 0,20.471   "/>	</g>		<polygon fill="url(#SVGIDhub_1_)" points="7.583,17.748 39.011,0 99.939,34.629 68.515,52.352  "/>	<g>		<g>			<polygon fill="#4A4A4A" points="2.419,27.165 4.868,28.492 4.851,26.736 3.962,26.22    "/>			<g>				<polygon fill="#BFBFBF" points="2.392,25.422 2.397,25.395 3.922,26.23 2.397,27.175     "/>			</g>			<g>				<path d="M5.089,26.348l0.228,0.126l0.001,0.256l0.007,2.266l0.001,0.26l-0.228-0.123l-2.905-1.576l-0.221-0.121      l-0.001-0.256L1.964,24.91l-0.001-0.257l0.22,0.119L5.089,26.348z M4.868,28.492l-0.017-1.756l-2.436-1.324l0.004,1.753      L4.868,28.492" fill="#808080"/>			</g>		</g>		<g>			<polygon fill="#4A4A4A" points="7.372,29.948 9.82,31.276 9.803,29.521 8.915,29.004    "/>			<g>				<polygon fill="#BFBFBF" points="7.344,28.206 7.349,28.179 8.874,29.015 7.349,29.959     "/>			</g>			<g>				<path d="M10.042,29.132l0.228,0.126l0.001,0.256l0.007,2.266l0.001,0.26l-0.228-0.123L7.145,30.34l-0.221-0.12      l-0.001-0.257l-0.006-2.269l-0.001-0.256l0.22,0.118L10.042,29.132z M9.82,31.276l-0.017-1.756l-2.436-1.325l0.005,1.753      L9.82,31.276" fill="#808080"/>			</g>		</g>		<g>			<polygon fill="#4A4A4A" points="12.324,32.732 14.772,34.061 14.755,32.304 13.867,31.788    "/>			<g>				<polygon fill="#BFBFBF" points="12.296,30.99 12.301,30.963 13.826,31.798 12.301,32.743     "/>			</g>			<g>				<path d="M14.993,31.916l0.229,0.126l0.001,0.257l0.007,2.264l0.001,0.26l-0.228-0.121l-2.905-1.577l-0.221-0.12      l-0.001-0.257l-0.006-2.269l-0.001-0.256l0.22,0.118L14.993,31.916z M14.772,34.061l-0.017-1.757l-2.436-1.324l0.005,1.753      L14.772,34.061" fill="#808080"/>			</g>		</g>		<g>			<polygon fill="#4A4A4A" points="17.276,35.517 19.724,36.845 19.707,35.088 18.819,34.571    "/>			<g>				<polygon fill="#BFBFBF" points="17.248,33.774 17.253,33.747 18.778,34.582 17.253,35.527     "/>			</g>			<g>				<path d="M19.945,34.701l0.229,0.124l0.001,0.257l0.007,2.266l0.001,0.259l-0.228-0.121l-2.905-1.577l-0.221-0.12      l-0.001-0.256l-0.006-2.269l-0.001-0.257l0.22,0.118L19.945,34.701z M19.724,36.845l-0.017-1.757l-2.436-1.324l0.005,1.753      L19.724,36.845" fill="#808080"/>			</g>		</g>		<g>			<polygon fill="#4A4A4A" points="22.228,38.302 24.676,39.629 24.659,37.873 23.771,37.356    "/>			<g>				<polygon fill="#BFBFBF" points="22.2,36.56 22.206,36.531 23.73,37.367 22.206,38.312     "/>			</g>			<g>				<path d="M24.897,37.485l0.229,0.125l0.001,0.256l0.006,2.266l0.001,0.26l-0.228-0.123l-2.905-1.576l-0.221-0.121      l-0.001-0.256l-0.006-2.268l-0.001-0.257l0.22,0.118L24.897,37.485z M24.676,39.629l-0.017-1.756l-2.436-1.324l0.005,1.753      L24.676,39.629" fill="#808080"/>			</g>		</g>		<g>			<polygon fill="#4A4A4A" points="27.18,41.086 29.628,42.413 29.611,40.657 28.723,40.141    "/>			<g>				<polygon fill="#BFBFBF" points="27.152,39.343 27.158,39.315 28.683,40.151 27.158,41.096     "/>			</g>			<g>				<path d="M29.85,40.269l0.229,0.126l0.001,0.256l0.006,2.266l0.001,0.26l-0.228-0.123l-2.905-1.576l-0.221-0.12      L26.731,41.1l-0.006-2.269l-0.001-0.256l0.22,0.118L29.85,40.269z M29.628,42.413l-0.017-1.756l-2.436-1.324l0.005,1.753      L29.628,42.413" fill="#808080"/>			</g>		</g>		<g>			<polygon fill="#4A4A4A" points="32.132,43.869 34.581,45.197 34.563,43.441 33.675,42.925    "/>			<g>				<polygon fill="#BFBFBF" points="32.104,42.127 32.11,42.1 33.635,42.935 32.11,43.88     "/>			</g>			<g>				<path d="M34.802,43.053l0.229,0.126l0.001,0.257l0.006,2.265l0.001,0.26l-0.228-0.123l-2.905-1.576l-0.221-0.12      l-0.001-0.257l-0.006-2.269l-0.001-0.256l0.22,0.118L34.802,43.053z M34.581,45.197l-0.017-1.756l-2.436-1.325l0.005,1.753      L34.581,45.197" fill="#808080"/>			</g>		</g>		<g>			<polygon fill="#4A4A4A" points="37.084,46.653 39.533,47.981 39.516,46.225 38.627,45.708    "/>			<g>				<polygon fill="#BFBFBF" points="37.057,44.911 37.062,44.885 38.587,45.719 37.062,46.664     "/>			</g>			<g>				<path d="M39.754,45.837l0.229,0.126l0.001,0.257l0.006,2.265l0.001,0.259l-0.228-0.121l-2.905-1.577l-0.221-0.12      l-0.001-0.256L36.629,44.4l-0.001-0.257l0.22,0.118L39.754,45.837z M39.533,47.981l-0.017-1.757L37.08,44.9l0.005,1.753      L39.533,47.981" fill="#808080"/>			</g>		</g>		<g>			<polygon fill="#4A4A4A" points="42.037,49.438 44.485,50.766 44.468,49.01 43.579,48.492    "/>			<g>				<polygon fill="#BFBFBF" points="42.009,47.696 42.014,47.668 43.539,48.503 42.014,49.449     "/>			</g>			<g>				<path d="M44.706,48.622l0.229,0.125l0.001,0.256l0.006,2.266l0.001,0.26l-0.228-0.122l-2.905-1.577l-0.221-0.12      l-0.001-0.256l-0.006-2.269l-0.001-0.257l0.22,0.118L44.706,48.622z M44.485,50.766l-0.017-1.756l-2.436-1.324l0.005,1.753      L44.485,50.766" fill="#808080"/>			</g>		</g>		<g>			<polygon fill="#4A4A4A" points="46.989,52.223 49.437,53.55 49.419,51.794 48.531,51.277    "/>			<g>				<polygon fill="#BFBFBF" points="46.961,50.48 46.966,50.452 48.491,51.288 46.966,52.232     "/>			</g>			<g>				<path d="M49.658,51.406l0.229,0.125l0.001,0.256l0.006,2.266l0.001,0.26l-0.228-0.123l-2.905-1.576l-0.221-0.12      l-0.001-0.257l-0.006-2.268l-0.001-0.256l0.22,0.117L49.658,51.406z M49.437,53.55l-0.018-1.756l-2.436-1.324l0.005,1.753      L49.437,53.55" fill="#808080"/>			</g>		</g>	</g>	<g>		<g>			<polygon fill="#4A4A4A" points="2.419,31.825 4.868,33.152 4.851,31.396 3.962,30.88    "/>			<g>				<polygon fill="#BFBFBF" points="2.392,30.083 2.397,30.055 3.922,30.891 2.397,31.836     "/>			</g>			<g>				<path d="M5.089,31.009l0.228,0.125l0.001,0.256l0.007,2.266l0.001,0.26l-0.228-0.122l-2.905-1.577l-0.221-0.12      L1.971,31.84l-0.007-2.269l-0.001-0.257l0.22,0.118L5.089,31.009z M4.868,33.152l-0.017-1.756l-2.436-1.324l0.004,1.753      L4.868,33.152" fill="#808080"/>			</g>		</g>		<g>			<polygon fill="#4A4A4A" points="7.372,34.609 9.82,35.937 9.803,34.181 8.915,33.664    "/>			<g>				<polygon fill="#BFBFBF" points="7.344,32.867 7.349,32.839 8.874,33.675 7.349,34.619     "/>			</g>			<g>				<path d="M10.042,33.793l0.228,0.125l0.001,0.256l0.007,2.266l0.001,0.26l-0.228-0.123L7.145,35l-0.221-0.12      l-0.001-0.257l-0.006-2.269l-0.001-0.256l0.22,0.118L10.042,33.793z M9.82,35.937l-0.017-1.756l-2.436-1.324l0.005,1.753      L9.82,35.937" fill="#808080"/>			</g>		</g>		<g>			<polygon fill="#4A4A4A" points="12.324,37.393 14.772,38.722 14.755,36.965 13.867,36.448    "/>			<g>				<polygon fill="#BFBFBF" points="12.296,35.65 12.301,35.623 13.826,36.459 12.301,37.403     "/>			</g>			<g>				<path d="M14.993,36.576l0.229,0.126l0.001,0.257l0.007,2.265l0.001,0.26l-0.228-0.123l-2.905-1.576l-0.221-0.12      l-0.001-0.257l-0.006-2.269l-0.001-0.256l0.22,0.118L14.993,36.576z M14.772,38.722l-0.017-1.757l-2.436-1.324l0.005,1.752      L14.772,38.722" fill="#808080"/>			</g>		</g>		<g>			<polygon fill="#4A4A4A" points="17.276,40.177 19.724,41.505 19.707,39.749 18.819,39.232    "/>			<g>				<polygon fill="#BFBFBF" points="17.248,38.435 17.253,38.408 18.778,39.242 17.253,40.188     "/>			</g>			<g>				<path d="M19.945,39.36l0.229,0.126l0.001,0.257l0.007,2.266l0.001,0.258l-0.228-0.121l-2.905-1.576l-0.221-0.121      l-0.001-0.256l-0.006-2.269l-0.001-0.257l0.22,0.118L19.945,39.36z M19.724,41.505l-0.017-1.756l-2.436-1.325l0.005,1.753      L19.724,41.505" fill="#808080"/>			</g>		</g>		<g>			<polygon fill="#4A4A4A" points="22.228,42.962 24.676,44.289 24.659,42.533 23.771,42.016    "/>			<g>				<polygon fill="#BFBFBF" points="22.2,41.22 22.206,41.191 23.73,42.026 22.206,42.973     "/>			</g>			<g>				<path d="M24.897,42.146l0.229,0.125l0.001,0.256l0.006,2.266l0.001,0.26l-0.228-0.122l-2.905-1.577l-0.221-0.12      l-0.001-0.256l-0.006-2.269l-0.001-0.257l0.22,0.119L24.897,42.146z M24.676,44.289l-0.017-1.756l-2.436-1.324l0.005,1.753      L24.676,44.289" fill="#808080"/>			</g>		</g>		<g>			<polygon fill="#4A4A4A" points="27.18,45.746 29.628,47.073 29.611,45.317 28.723,44.801    "/>			<g>				<polygon fill="#BFBFBF" points="27.152,44.004 27.158,43.976 28.683,44.812 27.158,45.757     "/>			</g>			<g>				<path d="M29.85,44.93l0.229,0.125l0.001,0.256l0.006,2.266l0.001,0.26l-0.228-0.123l-2.905-1.576l-0.221-0.12      l-0.001-0.257l-0.006-2.268l-0.001-0.256l0.22,0.117L29.85,44.93z M29.628,47.073l-0.017-1.756l-2.436-1.324l0.005,1.753      L29.628,47.073" fill="#808080"/>			</g>		</g>		<g>			<polygon fill="#4A4A4A" points="32.132,48.53 34.581,49.857 34.563,48.102 33.675,47.585    "/>			<g>				<polygon fill="#BFBFBF" points="32.104,46.787 32.11,46.76 33.635,47.596 32.11,48.54     "/>			</g>			<g>				<path d="M34.802,47.713l0.229,0.126l0.001,0.257l0.006,2.265l0.001,0.26l-0.228-0.123l-2.905-1.576l-0.221-0.12      l-0.001-0.257l-0.006-2.269l-0.001-0.256l0.22,0.118L34.802,47.713z M34.581,49.857l-0.017-1.756l-2.436-1.324l0.005,1.753      L34.581,49.857" fill="#808080"/>			</g>		</g>		<g>			<polygon fill="#4A4A4A" points="37.084,51.313 39.533,52.642 39.516,50.886 38.627,50.369    "/>			<g>				<polygon fill="#BFBFBF" points="37.057,49.571 37.062,49.545 38.587,50.38 37.062,51.324     "/>			</g>			<g>				<path d="M39.754,50.497l0.229,0.126l0.001,0.257l0.006,2.266l0.001,0.259l-0.228-0.122l-2.905-1.576      l-0.221-0.121l-0.001-0.256l-0.006-2.269l-0.001-0.257l0.22,0.118L39.754,50.497z M39.533,52.642l-0.017-1.756l-2.436-1.325      l0.005,1.753L39.533,52.642" fill="#808080"/>			</g>		</g>		<g>			<polygon fill="#4A4A4A" points="42.037,54.098 44.485,55.426 44.468,53.67 43.579,53.153    "/>			<g>				<polygon fill="#BFBFBF" points="42.009,52.356 42.014,52.329 43.539,53.163 42.014,54.108     "/>			</g>			<g>				<path d="M44.706,53.282l0.229,0.126l0.001,0.256l0.006,2.265l0.001,0.26l-0.228-0.122l-2.905-1.577l-0.221-0.12      l-0.001-0.256l-0.006-2.269l-0.001-0.257l0.22,0.119L44.706,53.282z M44.485,55.426l-0.017-1.756l-2.436-1.324l0.005,1.752      L44.485,55.426" fill="#808080"/>			</g>		</g>		<g>			<polygon fill="#4A4A4A" points="46.989,56.883 49.437,58.21 49.419,56.454 48.531,55.938    "/>			<g>				<polygon fill="#BFBFBF" points="46.961,55.141 46.966,55.112 48.491,55.948 46.966,56.894     "/>			</g>			<g>				<path d="M49.658,56.066l0.229,0.125l0.001,0.256l0.006,2.266l0.001,0.26l-0.228-0.122l-2.905-1.577l-0.221-0.119      l-0.001-0.257l-0.006-2.269l-0.001-0.256l0.22,0.117L49.658,56.066z M49.437,58.21l-0.018-1.756l-2.436-1.324l0.005,1.753      L49.437,58.21" fill="#808080"/>			</g>		</g>	</g>	<polygon fill="#5C5C5C" points="68.51,52.351 99.939,34.545 100,47.862 68.51,65.58  "/>	<polygon fill="#8B8B14" points="54.074,55.762 54.074,57.653 55.94,58.727 55.94,56.855  "/>	<polygon fill="#148B14" points="54.074,58.604 54.074,60.496 55.94,61.569 55.94,59.698  "/>	<polygon fill="#148B14" points="56.59,57.182 56.59,59.074 58.456,60.147 58.456,58.277  "/>	<polygon fill="#8B8B14" points="56.59,60.025 56.59,61.917 58.456,62.991 58.456,61.119  "/></g></symbol></defs><g transform='translate(451.0,350.0) rotate(0.0 50.0 35.0)'><use xlink:href='#com.gliffy.newnetwork.business.Hub' width='100.0' height='70.0'  fill="#003366"/><g  transform='translate(0.0,87.0)'><text x='50.0' style='text-anchor: middle' y='-2.0'><tspan xml:space='preserve' font-size='12' font-family='Arial' fill='#000000' >Client</tspan></text></g></g><g transform='translate(541.0,243.5)'><path d='M-3.0,0.0 L-15.5,0.0 Q-25.5,0.0 -35.5,0.0 L-40.5,0.0 Q-50.5,0.0 -60.5,0.0 L-69.0,0.0 ' stroke-dasharray='23, 0' fill='none' stroke='#000000' stroke-width='2' /><g transform='translate(0.0,0.0) rotate(180.0)'><polygon points='3.0,0 9.0,-3.0 9.0,3.0' fill='#000000' stroke='#000000' stroke-width='2.0' /></g><g transform='translate(-72.0,0.0) rotate(360.0)'><polygon points='3.0,0 9.0,-3.0 9.0,3.0' fill='#000000' stroke='#000000' stroke-width='2.0' /></g><g transform='translate(-16.0,0.0)'><rect fill='#ffffff' x='-20.5' y='-9.0' width='41.0' height='14'/><text x='0.0' style='text-anchor: middle' y='2.0'><tspan font-size='12px' font-family='Arial' fill='#000000' >VRRP</tspan></text></g></g><g transform='translate(501.0,184.0)'><path d='M0.0,3.0 L0.0,45.5 Q0.0,55.5 0.0,65.5 L0.0,100.5 Q0.0,110.5 0.0,120.5 L0.0,163.0 ' stroke-dasharray='23, 0' fill='none' stroke='#000000' stroke-width='2' /><g transform='translate(0.0,0.0) rotate(90.0)'><polygon points='3.0,0 9.0,-3.0 9.0,3.0' fill='#000000' stroke='#000000' stroke-width='2.0' /></g><g transform='translate(0.0,166.0) rotate(270.0)'><polygon points='3.0,0 9.0,-3.0 9.0,3.0' fill='#000000' stroke='#000000' stroke-width='2.0' /></g><g transform='translate(0.0,63.0)'></g></g><g transform='translate(509.0,100.5) rotate(0.0 75.0 14.0)'><g  transform='translate(0.0,11.0)'><text x='75.0' style='text-anchor: middle' y='-2.0'><tspan xml:space='preserve' font-size='12' font-family='Arial' fill='#000000' >"Echo" Server</tspan></text><text x='75.0' style='text-anchor: middle' y='12.8'><tspan xml:space='preserve' font-size='12' font-family='Arial' fill='#000000' >192.168.55.10</tspan></text></g></g><g transform='translate(592.0,208.5) rotate(0.0 75.0 21.0)'><g  transform='translate(0.0,11.0)'><text x='75.0' style='text-anchor: middle' y='-2.0'><tspan xml:space='preserve' font-size='12' font-family='Arial' fill='#000000' >VIPs:</tspan></text><text x='75.0' style='text-anchor: middle' y='12.8'><tspan xml:space='preserve' font-size='12' font-family='Arial' fill='#000000' >192.168.55.3</tspan></text><text x='75.0' style='text-anchor: middle' y='27.6'><tspan xml:space='preserve' font-size='12' font-family='Arial' fill='#000000' >192.168.50.3</tspan></text></g></g><g transform='translate(526.0,363.0) rotate(0.0 75.0 7.5)'><g  transform='translate(0.0,12.5)'><text x='75.0' style='text-anchor: middle' y='-2.0'><tspan xml:space='preserve' font-size='12' font-family='Arial' fill='#000000' >192.168.50.5</tspan></text></g></g></svg>